<svg width="375" height="44" viewBox="0 0 375 44" fill="none" xmlns="http://www.w3.org/2000/svg">
<rect opacity="0.35" x="336.5" y="17.8333" width="21" height="10.3333" rx="2.16667" stroke="black"/>
<path opacity="0.4" d="M359 21V25C359.808 24.6612 360.333 23.8731 360.333 23C360.333 22.1269 359.808 21.3388 359 21Z" fill="black"/>
<rect x="338" y="19.3333" width="18" height="7.33333" rx="1.33333" fill="black"/>
<path fill-rule="evenodd" clip-rule="evenodd" d="M323.334 19.5739C325.558 19.574 327.698 20.4117 329.31 21.9138C329.432 22.0298 329.626 22.0284 329.745 21.9106L330.906 20.7627C330.967 20.703 331 20.6221 331 20.5379C330.999 20.4537 330.965 20.3731 330.903 20.3141C326.671 16.3398 319.995 16.3398 315.763 20.3141C315.702 20.3731 315.667 20.4536 315.667 20.5378C315.666 20.622 315.7 20.7029 315.76 20.7627L316.921 21.9106C317.041 22.0285 317.235 22.03 317.356 21.9138C318.969 20.4116 321.109 19.5739 323.334 19.5739ZM323.332 23.2995C324.556 23.2994 325.736 23.756 326.643 24.5805C326.766 24.6976 326.959 24.695 327.078 24.5748L328.239 23.3977C328.3 23.3359 328.334 23.2522 328.333 23.1651C328.332 23.0781 328.297 22.995 328.234 22.9345C325.472 20.3552 321.194 20.3552 318.432 22.9345C318.37 22.995 318.334 23.0781 318.333 23.1652C318.332 23.2523 318.366 23.336 318.428 23.3977L319.588 24.5748C319.707 24.695 319.901 24.6976 320.023 24.5805C320.93 23.7565 322.109 23.3 323.332 23.2995ZM325.666 26.0231C325.668 26.1085 325.634 26.1909 325.572 26.2508L323.557 28.2419C323.498 28.3004 323.417 28.3333 323.333 28.3333C323.249 28.3333 323.169 28.3004 323.11 28.2419L321.095 26.2508C321.032 26.1908 320.998 26.1084 321 26.023C321.002 25.9375 321.04 25.8566 321.104 25.7993C322.391 24.7336 324.276 24.7336 325.562 25.7993C325.627 25.8567 325.665 25.9376 325.666 26.0231Z" fill="black"/>
<path fill-rule="evenodd" clip-rule="evenodd" d="M310.667 18.6667C310.667 18.1144 310.219 17.6667 309.667 17.6667H308.667C308.114 17.6667 307.667 18.1144 307.667 18.6667V27.3333C307.667 27.8856 308.114 28.3333 308.667 28.3333H309.667C310.219 28.3333 310.667 27.8856 310.667 27.3333V18.6667ZM304 20H305C305.552 20 306 20.4477 306 21V27.3333C306 27.8856 305.552 28.3333 305 28.3333H304C303.448 28.3333 303 27.8856 303 27.3333V21C303 20.4477 303.448 20 304 20ZM300.333 22.3333H299.333C298.781 22.3333 298.333 22.781 298.333 23.3333V27.3333C298.333 27.8856 298.781 28.3333 299.333 28.3333H300.333C300.885 28.3333 301.333 27.8856 301.333 27.3333V23.3333C301.333 22.781 300.885 22.3333 300.333 22.3333ZM296.667 25.3333C296.667 24.781 296.219 24.3333 295.667 24.3333H294.667C294.114 24.3333 293.667 24.781 293.667 25.3333V27.3333C293.667 27.8856 294.114 28.3333 294.667 28.3333H295.667C296.219 28.3333 296.667 27.8856 296.667 27.3333V25.3333Z" fill="black"/>
<path d="M37.5668 21.7305V23.5762C37.5668 24.377 37.4814 25.0679 37.3105 25.6489C37.1396 26.2251 36.893 26.6987 36.5707 27.0698C36.2533 27.436 35.8749 27.707 35.4355 27.8828C34.996 28.0586 34.5077 28.1465 33.9706 28.1465C33.5409 28.1465 33.1405 28.0928 32.7694 27.9854C32.3984 27.873 32.0639 27.6997 31.766 27.4653C31.4731 27.231 31.2192 26.9355 31.0043 26.5791C30.7944 26.2178 30.6332 25.7881 30.5209 25.29C30.4086 24.792 30.3525 24.2207 30.3525 23.5762V21.7305C30.3525 20.9297 30.4379 20.2437 30.6088 19.6724C30.7846 19.0962 31.0312 18.625 31.3486 18.2588C31.6708 17.8926 32.0517 17.624 32.4911 17.4531C32.9306 17.2773 33.4189 17.1895 33.956 17.1895C34.3857 17.1895 34.7836 17.2456 35.1498 17.3579C35.5209 17.4653 35.8554 17.6338 36.1532 17.8633C36.4511 18.0928 36.705 18.3882 36.915 18.7495C37.1249 19.106 37.2861 19.5332 37.3984 20.0312C37.5107 20.5244 37.5668 21.0908 37.5668 21.7305ZM35.4501 23.8545V21.4448C35.4501 21.0591 35.4281 20.7222 35.3842 20.4341C35.3451 20.146 35.2841 19.9019 35.2011 19.7017C35.1181 19.4966 35.0155 19.3306 34.8935 19.2036C34.7714 19.0767 34.6322 18.9839 34.476 18.9253C34.3197 18.8667 34.1464 18.8374 33.956 18.8374C33.7167 18.8374 33.5043 18.8838 33.3188 18.9766C33.1381 19.0693 32.9843 19.2183 32.8573 19.4233C32.7304 19.6235 32.6327 19.8921 32.5644 20.229C32.5009 20.561 32.4692 20.9663 32.4692 21.4448V23.8545C32.4692 24.2402 32.4887 24.5796 32.5278 24.8726C32.5717 25.1655 32.6352 25.417 32.7182 25.627C32.8061 25.832 32.9086 26.0005 33.0258 26.1323C33.1479 26.2593 33.287 26.3521 33.4433 26.4106C33.6044 26.4692 33.7802 26.4985 33.9706 26.4985C34.205 26.4985 34.4125 26.4521 34.5932 26.3594C34.7787 26.2617 34.935 26.1104 35.0619 25.9053C35.1938 25.6953 35.2914 25.4219 35.3549 25.085C35.4184 24.748 35.4501 24.3379 35.4501 23.8545ZM40.1632 26.396H40.3023C40.8883 26.396 41.3912 26.3252 41.8111 26.1836C42.2359 26.0371 42.585 25.8271 42.8585 25.5537C43.1319 25.2803 43.3346 24.9458 43.4664 24.5503C43.5982 24.1499 43.6641 23.6958 43.6641 23.188V21.1665C43.6641 20.7808 43.6251 20.4414 43.547 20.1484C43.4737 19.8555 43.3663 19.6138 43.2247 19.4233C43.088 19.228 42.9268 19.0815 42.7413 18.9839C42.5606 18.8862 42.3604 18.8374 42.1407 18.8374C41.9063 18.8374 41.6988 18.896 41.5181 19.0132C41.3375 19.1255 41.1837 19.2793 41.0567 19.4746C40.9347 19.6699 40.8394 19.8945 40.7711 20.1484C40.7076 20.3975 40.6759 20.6587 40.6759 20.9321C40.6759 21.2056 40.7076 21.4668 40.7711 21.7158C40.8346 21.96 40.9298 22.1772 41.0567 22.3677C41.1837 22.5532 41.3424 22.7021 41.5328 22.8145C41.7232 22.9219 41.9478 22.9756 42.2066 22.9756C42.4556 22.9756 42.6778 22.9292 42.8731 22.8364C43.0733 22.7388 43.2418 22.6118 43.3785 22.4556C43.5201 22.2993 43.6275 22.126 43.7008 21.9355C43.7789 21.7451 43.818 21.5522 43.818 21.3569L44.5138 21.7378C44.5138 22.0796 44.4405 22.4165 44.294 22.7485C44.1475 23.0806 43.9425 23.3833 43.6788 23.6567C43.42 23.9253 43.1197 24.1401 42.7779 24.3013C42.4361 24.4624 42.0699 24.543 41.6793 24.543C41.1812 24.543 40.7393 24.4526 40.3536 24.272C39.9679 24.0864 39.6407 23.8325 39.3722 23.5103C39.1085 23.1831 38.9083 22.8022 38.7716 22.3677C38.6348 21.9331 38.5665 21.4619 38.5665 20.9541C38.5665 20.4365 38.6495 19.9507 38.8155 19.4966C38.9864 19.0425 39.2281 18.6421 39.5406 18.2954C39.858 17.9487 40.2364 17.6777 40.6759 17.4824C41.1202 17.2822 41.6134 17.1821 42.1554 17.1821C42.6973 17.1821 43.1905 17.2871 43.6348 17.4971C44.0792 17.707 44.46 18.0049 44.7774 18.3906C45.0948 18.7715 45.3389 19.228 45.5098 19.7603C45.6856 20.2925 45.7735 20.8833 45.7735 21.5327V22.2651C45.7735 22.9585 45.6978 23.603 45.5465 24.1987C45.4 24.7944 45.1778 25.334 44.88 25.8174C44.587 26.2959 44.2208 26.7061 43.7813 27.0479C43.3468 27.3896 42.8414 27.6509 42.2652 27.8315C41.689 28.0122 41.0445 28.1025 40.3316 28.1025H40.1632V26.396ZM47.1174 26.9819C47.1174 26.6694 47.2249 26.4082 47.4397 26.1982C47.6594 25.9883 47.95 25.8833 48.3113 25.8833C48.6726 25.8833 48.9607 25.9883 49.1755 26.1982C49.3953 26.4082 49.5051 26.6694 49.5051 26.9819C49.5051 27.2944 49.3953 27.5557 49.1755 27.7656C48.9607 27.9756 48.6726 28.0806 48.3113 28.0806C47.95 28.0806 47.6594 27.9756 47.4397 27.7656C47.2249 27.5557 47.1174 27.2944 47.1174 26.9819ZM47.1174 20.9395C47.1174 20.627 47.2249 20.3657 47.4397 20.1558C47.6594 19.9458 47.95 19.8408 48.3113 19.8408C48.6726 19.8408 48.9607 19.9458 49.1755 20.1558C49.3953 20.3657 49.5051 20.627 49.5051 20.9395C49.5051 21.252 49.3953 21.5132 49.1755 21.7231C48.9607 21.9331 48.6726 22.0381 48.3113 22.0381C47.95 22.0381 47.6594 21.9331 47.4397 21.7231C47.2249 21.5132 47.1174 21.252 47.1174 20.9395ZM58.144 26.3521V28H50.849V26.5938L54.2987 22.895C54.6454 22.5093 54.9189 22.1699 55.1191 21.877C55.3193 21.5791 55.4633 21.313 55.5512 21.0786C55.644 20.8394 55.6903 20.6123 55.6903 20.3975C55.6903 20.0752 55.6366 19.7993 55.5292 19.5698C55.4218 19.3354 55.2631 19.1548 55.0531 19.0278C54.8481 18.9009 54.5942 18.8374 54.2914 18.8374C53.9692 18.8374 53.6908 18.9155 53.4565 19.0718C53.227 19.228 53.0512 19.4453 52.9291 19.7236C52.8119 20.002 52.7533 20.3169 52.7533 20.6685H50.6366C50.6366 20.0337 50.788 19.4526 51.0907 18.9253C51.3935 18.3931 51.8207 17.9707 52.3725 17.6582C52.9242 17.3408 53.5785 17.1821 54.3354 17.1821C55.0824 17.1821 55.7123 17.3042 56.225 17.5483C56.7426 17.7876 57.1332 18.1343 57.3969 18.5884C57.6654 19.0376 57.7997 19.5747 57.7997 20.1997C57.7997 20.5513 57.7436 20.8955 57.6313 21.2324C57.519 21.5645 57.3578 21.8965 57.1479 22.2285C56.9428 22.5557 56.6938 22.8877 56.4008 23.2246C56.1078 23.5615 55.7831 23.9106 55.4267 24.272L53.5736 26.3521H58.144ZM66.3726 17.3359V18.4712L62.2491 28H60.0225L64.1461 18.9839H58.836V17.3359H66.3726Z" fill="black"/>
</svg>
